<?xml version="1.0" encoding="UTF-8"?>
<svg data-name="Ebene 1" version="1.1" viewBox="0 0 936.02 1080.6" xmlns="http://www.w3.org/2000/svg">
 <defs>
  <style>.cls-1 {
        fill: #1a223d;
      }

      .cls-2 {
        fill: #203669;
      }

      .cls-3 {
        fill: #68b975;
      }

      .cls-4 {
        fill: #1c9680;
      }

      .cls-5 {
        fill: #c6d300;
      }</style>
 </defs>
 <rect class="cls-3" x="792" y="1008.3" width="71.64" height="72"/>
 <rect class="cls-1" x="72" y="1008.3" width="72" height="72"/>
 <rect class="cls-3" x="432" y="1008.3" width="72" height="72"/>
 <rect class="cls-1" y="936.33" width="72" height="72"/>
 <rect class="cls-4" x="144" y="1008.3" width="72" height="72"/>
 <rect class="cls-3" x="576" y="1008.3" width="72" height="72"/>
 <rect class="cls-2" x="720" y="1008.3" width="72" height="72"/>
 <rect class="cls-4" x="863.64" y="1008.3" width="72" height="72"/>
 <rect class="cls-2" x="648" y="1008.3" width="72" height="72"/>
 <rect class="cls-3" x="288.36" y="1008.3" width="71.64" height="72"/>
 <rect class="cls-5" x="432" y="936.33" width="72" height="72"/>
 <rect class="cls-4" x="720" y="936.33" width="72" height="72"/>
 <rect class="cls-3" x="863.64" y="936.33" width="72" height="72"/>
 <rect class="cls-1" x="504" y="936.33" width="72" height="72"/>
 <rect class="cls-4" x="288.36" y="936.33" width="71.64" height="72"/>
 <rect class="cls-4" x="792" y="864.33" width="71.64" height="72"/>
 <rect class="cls-4" x="216" y="864.33" width="72" height="72"/>
 <rect class="cls-5" x="720" y="864.33" width="72" height="72"/>
 <rect class="cls-4" x="504" y="864.33" width="72" height="72"/>
 <rect class="cls-4" x="648" y="864.33" width="72" height="72"/>
 <rect class="cls-5" x="792" y="792.33" width="71.64" height="72"/>
 <rect class="cls-2" x="360.36" y="792.33" width="71.64" height="72"/>
 <rect class="cls-5" x="576" y="792.33" width="72" height="72"/>
 <rect class="cls-4" x="863.64" y="792.33" width="72" height="72"/>
 <rect class="cls-4" x="288.36" y="792.33" width="71.64" height="72"/>
 <rect class="cls-2" x="792" y="720.33" width="71.64" height="72"/>
 <rect class="cls-1" x="360.36" y="720.33" width="71.64" height="72"/>
 <rect class="cls-4" x="432" y="720.33" width="72" height="72"/>
 <rect class="cls-2" x="216" y="720.33" width="72" height="72"/>
 <rect class="cls-1" x="720" y="720.33" width="72" height="72"/>
 <rect class="cls-2" x="863.64" y="720.33" width="72" height="72"/>
 <rect class="cls-2" x="504" y="720.33" width="72" height="72"/>
 <rect class="cls-5" x="648" y="720.33" width="72" height="72"/>
 <rect class="cls-3" x="863.64" y="648.33" width="72" height="72"/>
 <rect class="cls-4" x="792" y="576.33" width="71.64" height="72"/>
 <rect class="cls-2" x="432" y="576.33" width="72" height="72"/>
 <rect class="cls-5" x="720" y="576.33" width="72" height="72"/>
 <rect class="cls-3" x="504" y="576.33" width="72" height="72"/>
 <rect class="cls-4" x="648" y="576.33" width="72" height="72"/>
 <rect class="cls-2" x="792" y="504.33" width="71.64" height="72"/>
 <rect class="cls-3" x="360.36" y="504.33" width="71.64" height="72"/>
 <rect class="cls-5" x="576" y="504.33" width="72" height="72"/>
 <rect class="cls-4" x="863.64" y="504.33" width="72" height="72"/>
 <rect class="cls-3" x="432" y="432.33" width="72" height="72"/>
 <rect class="cls-3" x="720" y="432.33" width="72" height="72"/>
 <rect class="cls-5" x="720" y="360.33" width="72" height="72"/>
 <rect class="cls-2" x="863.64" y="360.33" width="72" height="72"/>
 <rect class="cls-5" x="792" y="288.33" width="71.64" height="72"/>
 <rect class="cls-2" x="576" y="288.33" width="72" height="72"/>
 <rect class="cls-2" x="720" y="288.33" width="72" height="72"/>
 <rect class="cls-5" x="863.64" y="288.33" width="72" height="72"/>
 <rect class="cls-1" x="648" y="288.33" width="72" height="72"/>
 <rect class="cls-1" x="863.64" y="144.33" width="72" height="72"/>
 <rect class="cls-4" x="792" y="72.33" width="71.64" height="72"/>
</svg>
